<?xml version="1.0" encoding="utf-8"?>
<!-- Generated by IcoMoon.io -->
<!DOCTYPE svg PUBLIC "-//W3C//DTD SVG 1.1//EN" "http://www.w3.org/Graphics/SVG/1.1/DTD/svg11.dtd">
<svg version="1.1" xmlns="http://www.w3.org/2000/svg" xmlns:xlink="http://www.w3.org/1999/xlink" width="32" height="32" viewBox="0 0 32 32">
<g>
</g>
	<path d="M16 30.805c-8.164 0-14.805-6.642-14.805-14.805s6.641-14.805 14.805-14.805 14.805 6.642 14.805 14.805c0 8.164-6.642 14.805-14.805 14.805zM16 1.445c-8.026 0-14.555 6.529-14.555 14.555s6.529 14.555 14.555 14.555c8.026 0 14.555-6.529 14.555-14.555-0-8.026-6.529-14.555-14.555-14.555z" fill="#000000" />
	<path d="M16.647 26.152c-3.922 0-7.005-1.142-7.172-2.656-0.040-0.364 0.089-0.721 0.386-1.060 0.969-1.107 3.562-1.865 6.604-1.931 0.14-0.003 0.281-0.005 0.419-0.005 3.921 0 7.004 1.142 7.172 2.656 0.040 0.365-0.090 0.722-0.387 1.061-0.97 1.107-3.562 1.864-6.603 1.93-0.14 0.003-0.281 0.005-0.419 0.005zM16.885 20.751c-0.137 0-0.275 0.002-0.414 0.005-2.93 0.064-5.511 0.806-6.422 1.846-0.248 0.284-0.358 0.576-0.325 0.867 0.148 1.342 3.254 2.434 6.923 2.434 0.137 0 0.276-0.002 0.414-0.005 2.928-0.063 5.509-0.804 6.421-1.845 0.249-0.284 0.359-0.576 0.326-0.869-0.149-1.342-3.255-2.433-6.923-2.433z" fill="#000000" />
	<path d="M9.597 23.28c-0.068 0-0.124-0.055-0.125-0.122l-0.297-15.483c-0.001-0.069 0.054-0.126 0.123-0.127 0.066 0.002 0.126 0.054 0.127 0.123l0.297 15.483c0.001 0.069-0.054 0.126-0.123 0.128-0.001-0-0.002-0-0.002-0z" fill="#000000" />
	<path d="M13.308 6.724l10.53 15.923-0.209 0.138-10.53-15.923 0.209-0.138z" fill="#000000" />
	<path d="M8.924 7.644c0.052-1.374 1.208-2.488 2.582-2.488 1.374 0 2.447 1.114 2.395 2.488-0.052 1.374-1.208 2.488-2.582 2.488-1.374 0-2.446-1.114-2.394-2.488z" fill="#000000" />
</svg>
