<?xml version="1.0" encoding="utf-8"?>
<!-- Generated by IcoMoon.io -->
<!DOCTYPE svg PUBLIC "-//W3C//DTD SVG 1.1//EN" "http://www.w3.org/Graphics/SVG/1.1/DTD/svg11.dtd">
<svg version="1.1" xmlns="http://www.w3.org/2000/svg" xmlns:xlink="http://www.w3.org/1999/xlink" width="32" height="32" viewBox="0 0 32 32">
<g>
</g>
	<path d="M8.658 16.338h15.463v2.219h-15.463v-2.219z" fill="#000000" />
	<path d="M6.98 10.649c0 0-0.055-1.026 0.916-1.026s0.942 1.026 0.942 1.026v10.694h-1.857v-10.694z" fill="#000000" />
	<path d="M23.617 13.030c0 0-0.055-1.026 0.916-1.026 0.971 0 0.942 1.026 0.942 1.026v8.314h-1.857v-8.314z" fill="#000000" />
	<path d="M9.711 12.885h12.971v2.489h-12.971v-2.489z" fill="#000000" />
	<path d="M16 30.701c-8.106 0-14.701-6.595-14.701-14.701 0-8.106 6.595-14.701 14.701-14.701 8.106 0 14.701 6.595 14.701 14.701 0 8.106-6.595 14.701-14.701 14.701zM16 1.549c-7.968 0-14.451 6.483-14.451 14.451s6.483 14.451 14.451 14.451c7.968 0 14.451-6.483 14.451-14.451s-6.483-14.451-14.451-14.451z" fill="#000000" />
</svg>
