<?xml version="1.0" encoding="utf-8"?>
<!-- Generated by IcoMoon.io -->
<!DOCTYPE svg PUBLIC "-//W3C//DTD SVG 1.1//EN" "http://www.w3.org/Graphics/SVG/1.1/DTD/svg11.dtd">
<svg version="1.1" xmlns="http://www.w3.org/2000/svg" xmlns:xlink="http://www.w3.org/1999/xlink" width="32" height="32" viewBox="0 0 32 32">
<g>
</g>
	<path d="M15.395 12.668c0 0.672-0.612 1.392-1.408 1.392v11.354c0 1.611-2.196 1.611-2.196 0v-11.354c-0.774 0-1.447-0.595-1.447-1.488v-6.247c0-0.544 0.787-0.564 0.787 0.021v4.62h0.657v-4.662c0-0.5 0.757-0.532 0.757 0.022v4.64h0.68v-4.655c0-0.523 0.735-0.544 0.735 0.019v4.636h0.669v-4.655c0-0.517 0.767-0.538 0.767 0.019l0 6.34z" fill="#000000" />
	<path d="M21.255 7.776v17.632c0 1.576-2.201 1.553-2.201 0v-6.996h-1.171v-10.636c0-2.476 3.372-2.476 3.372 0z" fill="#000000" />
	<path d="M16 30.722c-8.118 0-14.722-6.604-14.722-14.722 0-8.118 6.604-14.722 14.722-14.722s14.722 6.604 14.722 14.722c0 8.118-6.604 14.722-14.722 14.722zM16 1.528c-7.98 0-14.472 6.492-14.472 14.472s6.492 14.472 14.472 14.472c7.98 0 14.472-6.492 14.472-14.472-0-7.98-6.492-14.472-14.472-14.472z" fill="#000000" />
</svg>
