<?xml version="1.0" encoding="utf-8"?>
<!-- Generated by IcoMoon.io -->
<!DOCTYPE svg PUBLIC "-//W3C//DTD SVG 1.1//EN" "http://www.w3.org/Graphics/SVG/1.1/DTD/svg11.dtd">
<svg version="1.1" xmlns="http://www.w3.org/2000/svg" xmlns:xlink="http://www.w3.org/1999/xlink" width="32" height="32" viewBox="0 0 32 32">
<g>
</g>
	<path d="M7.504 8.636h16.709l-7.261 8.967v5.745h4.019c1.348 0 1.36 2.032 0 2.032h-10.026c-1.359 0-1.359-2.032 0-2.032h3.951v-5.789l-7.393-8.924z" fill="#000000" />
	<path d="M17.546 13.577c0 0.68-0.551 1.231-1.231 1.231s-1.231-0.551-1.231-1.231c0-0.68 0.551-1.231 1.231-1.231 0.68 0 1.231 0.551 1.231 1.231z" fill="#000000" />
	<path d="M16 30.68c-8.095 0-14.68-6.586-14.68-14.68s6.586-14.68 14.68-14.68c8.095 0 14.68 6.585 14.68 14.68s-6.585 14.68-14.68 14.68zM16 1.57c-7.957 0-14.43 6.473-14.43 14.43s6.473 14.43 14.43 14.43 14.43-6.473 14.43-14.43-6.473-14.43-14.43-14.43z" fill="#000000" />
</svg>
