<?xml version="1.0" encoding="utf-8"?>
<!-- Generated by IcoMoon.io -->
<!DOCTYPE svg PUBLIC "-//W3C//DTD SVG 1.1//EN" "http://www.w3.org/Graphics/SVG/1.1/DTD/svg11.dtd">
<svg version="1.1" xmlns="http://www.w3.org/2000/svg" xmlns:xlink="http://www.w3.org/1999/xlink" width="32" height="32" viewBox="0 0 32 32">
<g>
</g>
	<path d="M14.777 18.15c-0.779 0-4.374 0-5.154 0-2.184 0-2.388 1.945-2.388 2.262 0 0.314 0 4.596 0 4.596h9.969c0 0 0-4.326 0-4.64 0-1.136-0.802-2.218-2.427-2.218z" fill="#000000" />
	<path d="M15.239 14.426c0 1.579-1.279 2.858-2.858 2.858-1.578 0-2.858-1.279-2.858-2.858 0-1.578 1.28-2.858 2.858-2.858 1.579 0 2.858 1.28 2.858 2.858z" fill="#000000" />
	<path d="M10.11 7.148v3.466h0.756v-2.739h13.229v8.301h-7.832v0.865h8.618v-9.893z" fill="#000000" />
	<path d="M16 30.701c-8.106 0-14.701-6.595-14.701-14.701 0-8.106 6.595-14.701 14.701-14.701 8.106 0 14.701 6.595 14.701 14.701 0 8.106-6.595 14.701-14.701 14.701zM16 1.549c-7.968 0-14.451 6.483-14.451 14.451s6.483 14.451 14.451 14.451c7.968 0 14.451-6.483 14.451-14.451s-6.483-14.451-14.451-14.451z" fill="#000000" />
</svg>
