<?xml version="1.0" encoding="utf-8"?>
<!-- Generated by IcoMoon.io -->
<!DOCTYPE svg PUBLIC "-//W3C//DTD SVG 1.1//EN" "http://www.w3.org/Graphics/SVG/1.1/DTD/svg11.dtd">
<svg version="1.1" xmlns="http://www.w3.org/2000/svg" xmlns:xlink="http://www.w3.org/1999/xlink" width="32" height="32" viewBox="0 0 32 32">
<g>
</g>
	<path d="M9.473 14.789c-0.77 0-0.185 0-0.955 0-2.157 0-2.358 1.922-2.358 2.234 0 0.311 0 2.693 0 4.036 0 1.343 1.598 1.701 1.598 1.701l4.115-1.343c0 0 0-4.127 0-4.437-0-1.122-0.793-2.191-2.399-2.191z" fill="#000000" />
	<path d="M10.869 11.91c0 1.024-0.83 1.854-1.854 1.854s-1.854-0.83-1.854-1.854c0-1.024 0.83-1.854 1.854-1.854 1.024 0 1.854 0.83 1.854 1.854z" fill="#000000" />
	<path d="M16.655 13.742c-0.77 0-0.186 0-0.956 0-2.156 0-2.358 1.922-2.358 2.234 0 0.311 0 3.26 0 3.26h5.712c0 0 0-2.993 0-3.303 0-1.121-0.793-2.191-2.398-2.191z" fill="#000000" />
	<path d="M18.050 10.863c0 1.024-0.83 1.853-1.853 1.853s-1.853-0.83-1.853-1.853c0-1.024 0.83-1.853 1.853-1.853 1.024 0 1.853 0.83 1.853 1.853z" fill="#000000" />
	<path d="M23.749 14.789c-0.77 0-0.186 0-0.956 0-2.157 0-2.358 1.922-2.358 2.234 0 0.311 0 4.394 0 4.394l4.069 1.212c0 0 1.642-0.044 1.642-1.613 0-1.099 0-3.725 0-4.035-0-1.122-0.793-2.191-2.397-2.191z" fill="#000000" />
	<path d="M25.144 11.91c0 1.024-0.83 1.853-1.854 1.853-1.023 0-1.854-0.83-1.854-1.853 0-1.024 0.83-1.854 1.854-1.854 1.024 0 1.854 0.83 1.854 1.854z" fill="#000000" />
	<path d="M25.308 23.009c0 2.295-3.975 1.435-9.066 1.435-5.090 0-9.367 0.859-9.367-1.435 0-2.295 4.126-4.155 9.216-4.155 5.090 0 9.217 1.86 9.217 4.155z" fill="#000000" />
	<path d="M16 30.68c-8.095 0-14.68-6.586-14.68-14.68s6.585-14.68 14.68-14.68c8.095 0 14.68 6.585 14.68 14.68s-6.586 14.68-14.68 14.68zM16 1.57c-7.957 0-14.43 6.473-14.43 14.43s6.473 14.43 14.43 14.43 14.43-6.473 14.43-14.43-6.473-14.43-14.43-14.43z" fill="#000000" />
</svg>
