<?xml version="1.0" encoding="utf-8"?>
<!-- Generated by IcoMoon.io -->
<!DOCTYPE svg PUBLIC "-//W3C//DTD SVG 1.1//EN" "http://www.w3.org/Graphics/SVG/1.1/DTD/svg11.dtd">
<svg version="1.1" xmlns="http://www.w3.org/2000/svg" xmlns:xlink="http://www.w3.org/1999/xlink" width="32" height="32" viewBox="0 0 32 32">
<g>
</g>
	<path d="M16 30.743c-3.938 0-7.64-1.534-10.425-4.318-5.748-5.748-5.747-15.101 0.001-20.849 2.785-2.785 6.487-4.318 10.425-4.318 3.938 0 7.64 1.533 10.424 4.318 5.748 5.748 5.748 15.101 0 20.849-2.784 2.785-6.486 4.318-10.425 4.318zM16 1.507c-3.871 0-7.511 1.508-10.248 4.245-5.651 5.651-5.651 14.845-0.001 20.495 2.737 2.737 6.377 4.245 10.248 4.245s7.511-1.508 10.248-4.245c5.651-5.651 5.651-14.845 0-20.496-2.737-2.737-6.376-4.244-10.247-4.244z" fill="#000000" />
	<path d="M16.951 16.796l-1.796-1.796 6.644-6.644c-0.439-0.441-1.391-1.352-2.692-1.696-0.872-0.231-2.058-0.24-2.917 0.489-1.224 1.036-0.822 2.078-2.012 3.066-1.709 1.42-3.389 0.303-5.833 2.326-1.922 1.591-2.501 5.562 0.942 9.213 2.92 3.095 7.191 4.456 9.821 1.612 2.154-2.33 0.971-4.133 2.39-5.842 0.988-1.189 1.989-0.948 3.073-2.115 0.903-0.97 0.833-2.026 0.561-2.921-0.286-0.934-0.88-1.676-1.523-2.349l-6.659 6.659z" fill="#000000" />
	<path d="M15.051 16.792c-0.966-0.967-0.966-2.533 0-3.498s2.532-0.966 3.497 0c0.966 0.967 0.966 2.531 0 3.498-0.965 0.965-2.531 0.965-3.497 0z" fill="#000000" />
	<path d="M15.841 19.995l-0.851 0.851-3.891-3.891 0.852-0.85z" fill="#000000" />
</svg>
