<?xml version="1.0" encoding="utf-8"?>
<!-- Generated by IcoMoon.io -->
<!DOCTYPE svg PUBLIC "-//W3C//DTD SVG 1.1//EN" "http://www.w3.org/Graphics/SVG/1.1/DTD/svg11.dtd">
<svg version="1.1" xmlns="http://www.w3.org/2000/svg" xmlns:xlink="http://www.w3.org/1999/xlink" width="32" height="32" viewBox="0 0 32 32">
<g>
</g>
	<path d="M13.88 18.363c-0.929 0-2.316 0-3.245 0-2.603 0-2.847 2.32-2.847 2.696 0 0.375 0 4.315 0 4.315h8.987c0 0 0-3.993 0-4.367-0-1.354-0.957-2.644-2.895-2.644z" fill="#000000" />
	<path d="M15.132 14.413c0 1.579-1.28 2.858-2.859 2.858s-2.858-1.279-2.858-2.858c0-1.578 1.28-2.858 2.858-2.858 1.579 0 2.859 1.28 2.859 2.858z" fill="#000000" />
	<path d="M24.347 25.386h-0.25v-4.64c0-1.042-0.712-2.093-2.302-2.093h-3.727v-0.25h3.727c1.229 0 2.552 0.733 2.552 2.343v4.64z" fill="#000000" />
	<path d="M22.964 14.413c0 1.579-1.279 2.858-2.858 2.858-1.578 0-2.858-1.279-2.858-2.858 0-1.578 1.28-2.858 2.858-2.858 1.579 0 2.858 1.28 2.858 2.858z" fill="#000000" />
	<path d="M15.132 7.687c0 1.579-1.28 2.858-2.859 2.858s-2.858-1.28-2.858-2.858c0-1.579 1.28-2.858 2.858-2.858 1.579 0 2.859 1.279 2.859 2.858z" fill="#000000" />
	<path d="M22.964 7.687c0 1.579-1.279 2.858-2.858 2.858-1.578 0-2.858-1.28-2.858-2.858 0-1.579 1.28-2.858 2.858-2.858 1.579 0 2.858 1.279 2.858 2.858z" fill="#000000" />
	<path d="M16 30.701c-8.106 0-14.701-6.595-14.701-14.701s6.595-14.701 14.701-14.701 14.701 6.595 14.701 14.701-6.595 14.701-14.701 14.701zM16 1.549c-7.968 0-14.451 6.483-14.451 14.451s6.483 14.451 14.451 14.451 14.451-6.483 14.451-14.451c0-7.968-6.483-14.451-14.451-14.451z" fill="#000000" />
</svg>
