<?xml version="1.0" encoding="utf-8"?>
<!-- Generator: Adobe Illustrator 17.1.0, SVG Export Plug-In . SVG Version: 6.00 Build 0)  -->
<!DOCTYPE svg PUBLIC "-//W3C//DTD SVG 1.1//EN" "http://www.w3.org/Graphics/SVG/1.1/DTD/svg11.dtd">
<svg version="1.1" id="Layer_1" xmlns="http://www.w3.org/2000/svg" xmlns:xlink="http://www.w3.org/1999/xlink" x="0px" y="0px"
	 width="182px" height="73px" viewBox="0 0 182 73" enable-background="new 0 0 182 73" xml:space="preserve">
<g>
	<g>
		<path fill="#FFFFFF" d="M10.3,69.8c0.1,0.2-0.1,0.9-0.2,1c-1.2,1.4-3.4,2.1-4.7,2.1c-1.6,0-2.7-0.5-3.7-1.4
			c-1.2-1.2-1.8-3-1.8-4.7c0-2.7,1.2-4.4,2.6-5.4c1-0.6,2.2-1,3.3-1c2.9,0,4,2.4,4.2,4.3c0,0.1,0.2,0.3,0.5,0.3
			c0,0.2-0.2,0.8-0.3,0.9c-1.3,0.3-5.1,0.5-7.7,0.6c-0.1,0-0.1,0.2-0.1,0.3c0.1,0.8,0.5,2,1.3,2.7c0.9,0.8,1.7,1.1,3.1,1.1
			c1.2,0,2.3-0.4,3.4-1.2C10.2,69.6,10.3,69.7,10.3,69.8z M2.5,65c0,0.1,0.1,0.2,0.2,0.2c1,0,4.3-0.1,4.8-0.2
			c0.1-0.1,0.1-0.1,0.1-0.3c-0.2-1.4-1.2-2.9-2.6-2.9C3.6,61.9,2.6,63.2,2.5,65z"/>
		<path fill="#FFFFFF" d="M11.3,61c0.5,0,1.4,0.1,3.1,0.1c1.2,0,2.4-0.1,3-0.1c0.2,0.1,0.2,1,0.1,1.2c-0.4,0.1-0.8,0.1-1.2,0.2
			c-0.3,0.1-0.3,0.4-0.3,0.5c0.3,1,2.2,6.1,2.4,6.6c0,0.1,0.1,0,0.1,0c0.6-1.5,1.8-4.2,2.3-5.8c0.3-0.8,0.1-1.1-0.3-1.2
			c-0.3-0.1-0.7-0.2-1.2-0.3c-0.1-0.2,0-1.1,0.1-1.2c0.3,0,1.5,0.1,2.8,0.1c1.2,0,2.2-0.1,2.6-0.1c0.2,0.1,0.1,1,0,1.2
			c-0.3,0.1-0.7,0.1-1.1,0.2c-0.6,0.2-0.8,0.7-1.2,1.5c-0.8,1.9-1.5,3.3-2.6,6.1c-0.5,1.3-0.8,2.2-1,3c-0.3-0.1-1.4-0.1-1.8,0
			c-0.2-0.8-0.6-1.8-1-2.8c-0.9-2.3-1.8-4.7-2.4-6c-0.5-1.3-0.7-1.5-1.3-1.7c-0.3-0.1-0.8-0.2-1.3-0.3C11,61.9,11.1,61.2,11.3,61z"
			/>
		<path fill="#FFFFFF" d="M35.7,69.8c0.1,0.2-0.1,0.9-0.2,1c-1.2,1.4-3.4,2.1-4.7,2.1c-1.6,0-2.7-0.5-3.7-1.4
			c-1.2-1.2-1.8-3-1.8-4.7c0-2.7,1.2-4.4,2.6-5.4c1-0.6,2.2-1,3.3-1c2.9,0,4,2.4,4.2,4.3c0,0.1,0.2,0.3,0.5,0.3
			c0,0.2-0.2,0.8-0.3,0.9c-1.3,0.3-5.1,0.5-7.7,0.6c-0.1,0-0.1,0.2-0.1,0.3c0.1,0.8,0.5,2,1.3,2.7c0.9,0.8,1.7,1.1,3.1,1.1
			c1.2,0,2.3-0.4,3.4-1.2C35.6,69.6,35.7,69.7,35.7,69.8z M27.9,65c0,0.1,0.1,0.2,0.2,0.2c1,0,4.3-0.1,4.8-0.2
			C33,65,33,64.9,33,64.8c-0.2-1.4-1.1-2.9-2.6-2.9C29,61.9,28,63.2,27.9,65z"/>
		<path fill="#FFFFFF" d="M38.6,71.6c0.4-0.1,0.6-0.4,0.6-0.9c0.1-0.8,0.1-2.8,0.1-4.7v-2.1c-0.1-0.4-0.6-0.8-1.6-1.3
			c-0.1-0.2,0.1-0.8,0.2-0.9c1.2-0.1,3-0.7,3.7-1.1c0.1,0,0.2,0.1,0.2,0.2c0,0.1,0,1.1,0,1.6c0,0.1,0.1,0.1,0.2,0
			c1.2-1.1,2.7-1.8,3.9-1.8c1.3,0,2.2,0.6,2.9,1.6c0.6,0.9,0.8,2.1,0.8,3.5c0,1.7,0,4.3,0.1,5.2c0,0.1,0.1,0.3,0.2,0.4
			c0.5,0.3,1,0.3,1.6,0.4c0.1,0.2,0.1,0.9-0.1,1.2c-0.4,0-1.4-0.1-3-0.1c-1.3,0-2.1,0.1-2.9,0.1c-0.1-0.2-0.2-1,0-1.2
			c0.5-0.1,1-0.1,1.2-0.2c0.4-0.1,0.5-0.4,0.5-1.4c0-1.9,0-4.1-0.1-5.2c-0.1-0.5-0.3-1.2-0.8-1.6c-0.4-0.3-1-0.6-1.8-0.6
			c-0.8,0-1.8,0.3-2.4,0.9c-0.2,0.1-0.3,0.4-0.3,1c0,2,0,4.8,0.1,6.2c0,0.5,0.1,0.7,0.6,0.9c0.3,0.1,0.7,0.1,1.2,0.2
			c0.1,0.2,0.1,0.9-0.1,1.2c-0.4,0-1.3-0.1-3-0.1c-1.2,0-2.7,0.1-3,0.1c-0.1-0.2-0.1-1,0-1.2C38,71.7,38.3,71.7,38.6,71.6z"/>
		<path fill="#FFFFFF" d="M56.8,62.6c0,0-0.1,0.1-0.1,0.1c0,1.1,0,3.1,0,4.6c0,1.4,0.1,1.9,0.2,2.4c0.2,0.9,1.1,1.2,1.8,1.2
			c0.8,0,1.2-0.1,1.9-0.5c0.1,0.1-0.1,1.1-0.2,1.2c-0.7,0.9-2,1.3-3,1.3c-1.3,0-2.3-0.6-2.8-1.5c-0.4-0.7-0.5-1.5-0.5-3.3
			c0-1.7,0-4.1,0-5.2c0-0.1-0.1-0.3-0.2-0.3l-1.7-0.1c0-0.2,0.1-1,0.3-1.2c0.5-0.1,1.2-0.3,1.4-0.3c0,0,0.1-0.1,0.1-0.3v-2.6
			c0.4-0.2,1.6-0.9,2-1.2c0.1-0.1,0.5-0.1,0.6-0.1c0,0.5-0.1,1.9-0.1,3.9c0,0.1,0.1,0.2,0.1,0.2c1.3,0,3.3-0.1,3.8-0.1
			c-0.1,0.5-0.3,1.4-0.3,1.9C59.8,62.6,58,62.6,56.8,62.6z"/>
		<path fill="#FFFFFF" d="M62.6,71.7c0.5-0.2,0.5-0.6,0.6-1.3c0.1-1,0.1-5.2,0-6.1c0-0.2,0-0.4-0.2-0.6c-0.1-0.2-0.6-0.5-1.2-0.8
			c-0.1-0.2,0-0.8,0.1-0.9c1.8-0.2,4.1-0.8,5-1.2c0.1,0,0.1,0.1,0.1,0.2c0,0.2-0.1,1.2-0.1,1.7c0,0.1,0.1,0.1,0.2,0.1
			c1.7-1.3,2.9-1.8,3.8-1.8c1.3,0,2.4,0.7,3,1.9c0,0.1,0.1,0.1,0.2,0c1.8-1.4,3.1-1.9,4.1-1.9c2.2,0,3.7,1.8,3.7,4.7
			c0,1.5,0,4.2,0,5.4c0,0.1,0,0.3,0.1,0.4c0.3,0.3,0.8,0.4,1.6,0.6c0.1,0.1,0,0.8-0.1,1c-0.7,0-2-0.1-3.4-0.1c-1.4,0-2.3,0-3.3,0.1
			c-0.1-0.1-0.1-0.8,0-1c0.3-0.1,0.6-0.1,0.7-0.2c0.5-0.1,0.5-0.4,0.5-1.2c0.1-1.9,0.1-4.4-0.1-5.4c-0.1-0.8-0.7-1.7-2-1.7
			c-0.4,0-1.1,0.2-1.6,0.5c-0.1,0.1,0,0.1,0,0.2c0.1,0.6,0.1,1.5,0.1,2.1v4.6c0,0.4,0.1,0.6,0.3,0.8c0.3,0.2,0.7,0.3,1.2,0.4
			c0.1,0.1,0,0.9-0.1,1c-1.2,0-2.3-0.1-3.6-0.1c-1.4,0-2.2,0.1-2.9,0.1c-0.1-0.2-0.1-0.8,0-1c0.4-0.1,0.7-0.1,1-0.2
			c0.3-0.1,0.4-0.6,0.4-0.9c0.1-1.9,0.1-5.2-0.1-5.9c-0.1-0.7-0.7-1.7-2-1.7c-0.5,0-1,0.2-1.4,0.5c-0.2,0.1-0.3,0.4-0.3,0.5
			c0,2.1,0,4.3,0,6.4c0,0.7,0.1,0.9,0.7,1.1c0.2,0.1,0.5,0.1,0.8,0.2c0.1,0.1,0,0.8-0.1,1c-1.2,0-2.2-0.1-3.5-0.1
			c-2,0-2.3,0.1-3.2,0.1c-0.1-0.2-0.1-0.9,0-1C62.2,71.9,62.3,71.8,62.6,71.7z"/>
		<path fill="#FFFFFF" d="M90.4,63.6c-0.5-0.6-1.2-0.9-2-0.9c-0.6,0-1.2,0.2-1.4,0.4c-0.2,0.2-0.8,1.4-1,1.7c-0.1,0.1-1.1-0.3-1-0.5
			c0-0.2,0.4-1.7,0.6-1.9c1.5-1.1,3.6-1.8,4.5-1.8c1.6,0,2.7,0.7,3.4,1.8c0.6,0.9,0.7,1.9,0.7,2.9c0,1.4-0.1,3.2-0.1,4.4
			c0,0.5,0.2,1.1,0.8,1.1c0.3,0,0.5,0,0.9-0.1c0.1,0.1-0.1,1-0.1,1.1c-0.7,0.7-2.2,1.1-3.1,1.1c-1,0-1.6-0.4-1.8-0.9
			c-0.1-0.1-0.1-0.3-0.1-0.5c0-0.1-0.1-0.1-0.1,0c-1.4,0.9-2.8,1.4-3.2,1.4c-0.7,0-1.3-0.3-1.8-0.7c-0.7-0.7-1.1-1.7-1.1-2.8
			c0-0.4,0.3-1.4,0.5-1.7c0.8-0.5,4.4-1.4,5.5-1.8c0.1,0,0.2-0.2,0.2-0.3c0-0.2,0-0.2,0-0.4C90.9,64.6,90.8,64.1,90.4,63.6z
			 M90.8,66.8c-0.7,0.3-2.1,0.7-2.4,0.9c-0.1,0.1-0.2,0.7-0.2,1c0,1.5,1,2.1,1.9,2.1c0.3,0,0.5,0,0.6-0.2c0.1-0.1,0.2-0.2,0.2-0.5
			c0.1-0.9,0.1-2.6,0.1-3.1C90.8,66.9,90.8,66.8,90.8,66.8z"/>
		<path fill="#FFFFFF" d="M107.1,61.8c0.1,0.1,0,0.5,0,0.6c-0.1,0.5-0.8,2-1.3,2.6c-0.1,0.1-0.3,0.1-0.4,0.1
			c-0.6-0.7-1.4-1.2-2.3-1.2c-0.3,0-0.6,0.1-0.8,0.3c-0.1,0.1-0.2,0.2-0.2,0.4c0,1.5,0,5.4,0,5.8c0.1,0.9,0.1,1.1,0.8,1.3
			c0.5,0.1,0.9,0.2,1.5,0.3c0.1,0.1,0,0.8-0.1,1c-0.6,0-2-0.1-4.1-0.1c-1.4,0-2.6,0.1-3.3,0.1c-0.1-0.2-0.1-0.9,0-1
			c0.4-0.1,0.8-0.1,1.1-0.3c0.3-0.1,0.4-0.3,0.5-0.9c0.1-0.6,0.1-2.6,0.1-4.4c0-1,0-1.9-0.1-2.3c0-0.3-0.1-0.7-1.4-1.2
			c0-0.2,0.1-0.7,0.1-0.8c1.1-0.1,3.7-0.6,4.8-1.3c0.1,0,0.2,0.1,0.2,0.2c0,0.3-0.1,1.8-0.1,2.2c0,0.1,0.1,0.1,0.1,0.1
			c0.6-0.6,1.1-1.1,1.7-1.6c0.4-0.3,1-0.7,1.6-0.7C106.2,60.9,106.8,61.3,107.1,61.8z"/>
		<path fill="#FFFFFF" d="M114.7,61.2c1.8,0,4.4-0.1,5.9-0.2c0.1,0.1,0.1,0.8,0,1c-1.1,0.2-1.8,0.5-2.3,1c-0.7,0.7-1.7,1.7-2.4,2.4
			c-0.1,0.1,0,0.1,0,0.1c0.5,0.9,3.3,4.7,4.3,5.6c0.5,0.5,0.7,0.5,1.8,0.6c0.1,0.1,0,0.9-0.1,1c-0.7,0.1-2.6,0.1-3.8,0.1
			c-0.8,0-1.4-0.4-1.8-0.7c-0.6-0.7-1.9-2.6-2.8-4.1c-0.3-0.4-0.5-0.7-0.8-0.9c0,1.5,0,2,0,3.1c0,0.9,0.2,1.1,0.8,1.3
			c0.3,0.1,0.6,0.1,0.9,0.2c0.1,0.2,0,0.9-0.2,1c-0.7,0-1.6-0.1-3.5-0.1c-1.6,0-2.5,0.1-3.4,0.1c-0.1-0.1-0.1-0.9,0-1
			c0.5-0.1,0.7-0.1,1-0.2c0.4-0.2,0.5-0.5,0.5-1.2c0.1-0.7,0.1-3.2,0.1-4.5c0-7.6,0-8.8-0.1-9.4c0-0.4-0.1-0.7-0.5-0.9
			c-0.3-0.1-0.7-0.2-1.1-0.3c-0.1-0.1-0.1-0.8,0-0.9c1.8-0.1,4.6-0.6,5.6-0.9c0.1,0,0.2,0.4,0.2,0.5c-0.2,0.4-0.3,0.8-0.3,3
			c0,1.7-0.1,3.5-0.1,9.3c0.4-0.1,0.8-0.3,1.3-0.6c1.1-0.9,2.4-2.4,2.4-2.9c0-0.3-0.1-0.4-0.5-0.5c-0.4-0.1-1.3-0.2-1.3-0.2
			C114.5,62,114.6,61.3,114.7,61.2z"/>
		<path fill="#FFFFFF" d="M133.2,69.4c0,0.3-0.1,0.8-0.1,1c-1.3,1.6-3.4,2.6-5.3,2.6c-1.7,0-3-0.5-3.9-1.4c-1.2-1.2-1.7-3-1.7-4.7
			c0-2.4,1.2-4.2,2.7-5.2c1-0.6,2.3-1,3.5-1c3.2,0,4.3,2.6,4.6,4.2c0,0.2,0.3,0.3,0.4,0.4c0,0.1-0.1,0.7-0.2,0.8
			c-0.8,0.3-5.1,0.5-7.1,0.6c-0.1,0-0.1,0.2-0.1,0.3c0.1,0.8,0.4,1.7,1.1,2.4c0.7,0.7,1.6,1,2.7,1c1.2,0,2.2-0.3,3.3-1.1
			C133.1,69.2,133.2,69.3,133.2,69.4z M125.8,65.2c0,0,0.1,0.2,0.2,0.2c0.7,0,2.6,0,3.1-0.1c0.1,0,0.2-0.1,0.2-0.3
			c-0.1-1.8-0.7-3.2-1.8-3.2C126.5,61.8,125.8,63.2,125.8,65.2z"/>
		<path fill="#FFFFFF" d="M139.7,62.8c0,0-0.1,0.1-0.1,0.2c0,1.1,0,3.1,0,4.5c0,1,0,1.6,0.1,2.2c0.1,0.6,0.6,1.1,1.5,1.1
			c0.6,0,1-0.1,1.6-0.4c0.1,0.1,0.1,0.7,0,1c-0.8,1.1-2.2,1.6-3.5,1.6c-1.4,0-2.4-0.4-3-1.4c-0.4-0.8-0.4-1.6-0.4-3.2
			c0-1.4,0-4,0-5.2c0-0.1-0.1-0.3-0.2-0.3c-0.4-0.1-0.9-0.1-1.4-0.1c0-0.2,0.1-0.9,0.3-1.2c0.4-0.1,1-0.2,1.2-0.3
			c0.1,0,0.1-0.1,0.1-0.2v-2.4c0.9-0.3,2.7-1.2,3.2-1.5c0.1,0,0.5-0.1,0.7-0.1c-0.1,0.7-0.1,2-0.1,3.9c0,0.1,0.1,0.2,0.1,0.2
			c0.6,0,2.4-0.1,3.1-0.1c-0.1,0.5-0.3,1.4-0.3,1.9C141.7,62.8,140.7,62.8,139.7,62.8z"/>
		<g>
			<path fill="#FFFFFF" d="M146.6,70.5c0.3,0.3,0.4,0.7,0.4,1.1c0,0.2-0.1,0.7-0.4,0.9c-0.3,0.3-0.6,0.4-1,0.4
				c-0.3,0-0.6-0.1-0.9-0.4c-0.3-0.3-0.4-0.6-0.4-1c0-0.4,0.2-0.7,0.4-1c0.3-0.2,0.6-0.4,0.9-0.4C146.1,70.2,146.4,70.3,146.6,70.5z
				"/>
			<path fill="#FFFFFF" d="M152.3,72.9c-1.3,0-2.4-0.5-3.1-1.5c-0.5-0.7-0.8-1.7-0.8-2.8c0-1.6,0.7-2.8,2.1-3.7
				c1-0.6,2.1-0.8,2.6-0.8c0.9,0,1.4,0.2,1.8,0.4c0.4,0.2,0.5,0.3,0.6,0.5c0,0.1,0,0.3,0,0.4c-0.1,0.4-0.6,0.9-0.8,0.9
				c0,0-0.2,0-0.2,0c-0.5-0.5-1.3-1.2-2.3-1.2c-1.5,0-2.1,1.3-2.1,2.6c0,0.9,0.2,1.8,0.8,2.4c0.5,0.7,1.3,1,2.3,1
				c0.7,0,1.5-0.2,2.4-1c0,0,0.1,0.1,0.1,0.2c0,0.2-0.1,0.7-0.1,0.8C154.6,72.5,153.2,72.9,152.3,72.9z"/>
			<path fill="#FFFFFF" d="M165.5,68.3c0,1.7-0.6,3-1.9,3.8c-0.6,0.4-1.6,0.8-2.5,0.8c-3.1,0-4.2-2.3-4.2-4.4c0-1.6,0.7-2.7,1.8-3.5
				c0.7-0.5,1.8-0.8,2.8-0.8C164,64.2,165.5,66,165.5,68.3z M159.9,65.4c-0.5,0.3-1,1-1,2.5c0,2.4,1.2,4,2.8,4
				c0.4,0,0.8-0.1,1.2-0.4c0.5-0.4,0.8-1.2,0.8-2.5c0-2.4-1.2-3.8-2.8-3.8C160.5,65.2,160.1,65.2,159.9,65.4z"/>
			<path fill="#FFFFFF" d="M167.7,71.7c0.3-0.1,0.4-0.2,0.5-0.7c0.1-1.1,0.1-3.2,0-4.6c0-0.2,0-0.4-0.2-0.5
				c-0.2-0.2-0.6-0.3-1.1-0.5c-0.1-0.1,0-0.6,0.1-0.6c1.1-0.2,2.2-0.4,2.7-0.7l0.1,0.1c0,0.1,0,0.8,0,1.1c0,0,0.1,0.1,0.1,0
				c1.2-0.9,2.2-1.3,2.7-1.3c1,0,1.7,0.5,2.1,1.3c0,0.1,0.1,0,0.1,0c1.1-0.8,2.1-1.3,2.8-1.3c1.6,0,2.7,1.2,2.7,3.4
				c0,1.1,0,2.8,0,3.7c0,0.1,0.1,0.3,0.3,0.4c0.2,0.1,0.6,0.2,1.1,0.3c0.1,0.1,0,0.7-0.1,0.8c-0.3,0-1-0.1-1.8-0.1
				c-1.1,0-1.7,0-2.3,0.1c-0.1-0.1-0.1-0.7,0-0.8c0.3-0.1,0.5-0.1,0.7-0.2c0.3-0.1,0.4-0.2,0.4-0.7c0-0.9,0.1-3.3,0-4
				c-0.1-0.6-0.5-1.5-1.8-1.5c-0.5,0-1.2,0.2-1.8,0.7c0,0,0,0.1,0,0.1c0.1,0.4,0.1,0.8,0.1,1.5c0,1.1,0,2.5,0,3.3
				c0,0.3,0.2,0.4,0.4,0.5c0.3,0.1,0.5,0.1,0.9,0.2c0.1,0.1,0,0.7-0.1,0.8c-0.6,0-1.2,0-2.2,0c-0.5,0-1.6,0-1.9,0
				c-0.1-0.1-0.1-0.7,0-0.8c0.3-0.1,0.6-0.1,0.8-0.2c0.3-0.1,0.4-0.2,0.4-0.6c0.1-0.9,0.1-3.5,0-4.1c-0.1-0.7-0.5-1.5-1.7-1.5
				c-0.5,0-1.2,0.2-1.8,0.7c-0.1,0.1-0.1,0.2-0.1,0.4c0,1.3,0,3.8,0,4.7c0,0.2,0.1,0.4,0.4,0.5c0.1,0,0.4,0.1,0.8,0.1
				c0.1,0.1,0,0.7-0.1,0.8c-0.4,0-1.2-0.1-2.1-0.1c-1.1,0-1.6,0.1-2.1,0.1c-0.1-0.1-0.1-0.7,0-0.8C167.3,71.8,167.5,71.8,167.7,71.7
				z"/>
		</g>
	</g>
	<path fill="#FFFFFF" d="M128.9,30c-0.6,0.7-0.9,2-0.6,2.9l4.1,15c0.2,0.6,0,1-0.1,1.2c-0.2,0.2-0.4,0.3-0.7,0.3c0,0,0,0,0,0
		c-0.2,0-0.4-0.1-0.7-0.1l-9.3-3.8c-0.3-0.1-0.5-0.3-0.5-0.6c-0.2-0.7,0.5-1.7,0.9-2.2c0.5-0.6,1-1.5,1-1.9c0-0.2,0-0.5,0-0.7
		c-0.2,0.1-0.7,0.4-1.3,0.8c-0.1,0.1-2,1.3-4,1.5c-0.4,0-0.8,0.1-1.2,0.1c-1.6,0-2.9-0.4-4.2-1.4c-1.4-1-2-2.5-2-2.6
		c0,0-0.7-2-0.5-2.3c0-0.1,0.2-0.2,2-0.5l9-1.7c1-0.2,1.8-0.8,1.8-1c0-0.1,0-0.3-0.5-0.8c-0.2-0.2-0.7-1.4-1-1.9c0,0-2.2-5-6.7-4.5
		c-1.7,0.2-3.6,1.2-3.6,1.2c-0.8,0.5-2,1.5-2.6,2.3c0,0-2.7,3.4-2.2,7.7c0.3,3.1,1.7,5.8,3.7,7.4l0.4,0.3c0.2,0.1,0.3,0.3,0.3,0.5
		c0,0.4-0.4,0.9-1,1.3l-8.8,5.7c-0.3,0.2-0.6,0.3-0.8,0.3c-0.2,0-0.5-0.1-0.6-0.3c-0.2-0.2-0.3-0.6-0.3-1.1l1.2-15.5
		c0.1-0.9-0.5-2.2-1.2-2.7l-12.1-9.7c-0.2-0.2-0.3-0.3-0.4-0.5C86,22.3,86,22,86.1,21.8c0.1-0.2,0.3-0.5,0.9-0.7l15.1-3.7
		c0.9-0.2,1.9-1.1,2.2-2L109.9,1c0.2-0.6,0.6-0.9,1-0.9c0.4,0,0.7,0.2,1,0.7l8.2,13.2c0.5,0.8,1.6,1.5,2.6,1.5l15.5,0.8
		c0.6,0,1,0.2,1.1,0.6c0.2,0.4,0,0.8-0.3,1.2L128.9,30z M109.7,34c-0.4,0-0.6-0.4-0.6-0.6c-0.1-3.3,1.5-5.6,3.8-5.9
		c2.6-0.3,4.6,2.1,5.1,4.5c0,0.3-0.1,0.5-0.3,0.7l-0.1,0C116.8,33.2,111.5,33.9,109.7,34L109.7,34z M109.7,33.8L109.7,33.8
		L109.7,33.8L109.7,33.8z"/>
</g>
</svg>
